# xmcd
#
# Track frame offsets: 
#        150
#        19184
#        34887
#        51315
#        67804
#        85401
#        99899
#        116663
#        139854
#        154691
#        169576
#        185517
#        204270
#        225697
#        242888
#
# Disc length: 3438 seconds
#
# Revision: 0
# Processed by: cddbd v1.5.2PL0 Copyright (c) Steve Scherf et al.
# Submitted via: ExactAudioCopy v0.99pb5
#
DISCID=c30d6c0f
DTITLE=Kenny Rogers - The First 50 Years - love songs
DYEAR=2009
DGENRE=Country
TTITLE0=She Believes In Me
TTITLE1=I Don't Need You
TTITLE2=Love Will Turn You Around
TTITLE3=You Decorated My Life
TTITLE4=Lady
TTITLE5=Love The World Away
TTITLE6=Crazy
TTITLE7=I Prefer The Moonlight
TTITLE8=A Love Song
TTITLE9=Beautiful (All That You Could Be)
TTITLE10=The Vows Go Unbroken (Always True To You)
TTITLE11=Morning Desire
TTITLE12=Through The Years
TTITLE13=Buy Me A Rose (Allison Krauss and Billy Dean)
TTITLE14=Loving You Is A Natural Thing To Do*
EXTD=
EXTT0=
EXTT1=
EXTT2=
EXTT3=
EXTT4=
EXTT5=
EXTT6=
EXTT7=
EXTT8=
EXTT9=
EXTT10=
EXTT11=
EXTT12=
EXTT13=
EXTT14=
PLAYORDER=
